<svg width="490" height="60" viewBox="0 0 490 60" fill="none" xmlns="http://www.w3.org/2000/svg">
<g clip-path="url(#clip0_2085_53)">
<path d="M17.8704 39.7059L12.748 13.9307H60.4986V35.7524C60.4986 37.9363 58.7291 39.7059 56.5451 39.7059H17.8704Z" fill="#CCFFD9" stroke="#527F72" stroke-width="1.08475"/>
<path d="M56.5466 40.6974H17.0569L11.54 12.9395H61.4904V35.7535C61.4904 38.4797 59.2728 40.6974 56.5466 40.6974ZM18.6847 38.7147H56.5456C58.1793 38.7147 59.5077 37.3863 59.5077 35.7535V14.9222H13.957L18.6847 38.7147Z" fill="#527F72" stroke="#527F72" stroke-width="1.08475"/>
<path d="M24.8103 53.5854C27.5478 53.5854 29.7671 51.3662 29.7671 48.6286C29.7671 45.8911 27.5478 43.6719 24.8103 43.6719C22.0727 43.6719 19.8535 45.8911 19.8535 48.6286C19.8535 51.3662 22.0727 53.5854 24.8103 53.5854Z" fill="#59E63D" stroke="#527F72" stroke-width="1.08475"/>
<path d="M24.8095 54.5769C21.5291 54.5769 18.8613 51.9092 18.8613 48.6288C18.8613 45.3484 21.5291 42.6807 24.8095 42.6807C28.0898 42.6807 30.7576 45.3484 30.7576 48.6288C30.7576 51.9092 28.0898 54.5769 24.8095 54.5769ZM24.8095 44.6634C22.6225 44.6634 20.844 46.4419 20.844 48.6288C20.844 50.8157 22.6225 52.5942 24.8095 52.5942C26.9964 52.5942 28.7749 50.8157 28.7749 48.6288C28.7749 46.4419 26.9964 44.6634 24.8095 44.6634Z" fill="#527F72" stroke="#527F72" stroke-width="1.08475"/>
<path d="M47.6111 53.5854C50.3486 53.5854 52.5678 51.3662 52.5678 48.6286C52.5678 45.8911 50.3486 43.6719 47.6111 43.6719C44.8735 43.6719 42.6543 45.8911 42.6543 48.6286C42.6543 51.3662 44.8735 53.5854 47.6111 53.5854Z" fill="#59E63D" stroke="#527F72" stroke-width="1.08475"/>
<path d="M47.6102 54.5769C44.3298 54.5769 41.6621 51.9092 41.6621 48.6288C41.6621 45.3484 44.3298 42.6807 47.6102 42.6807C50.8906 42.6807 53.5584 45.3484 53.5584 48.6288C53.5584 51.9092 50.8906 54.5769 47.6102 54.5769ZM47.6102 44.6634C45.4233 44.6634 43.6448 46.4419 43.6448 48.6288C43.6448 50.8157 45.4233 52.5942 47.6102 52.5942C49.7972 52.5942 51.5757 50.8157 51.5757 48.6288C51.5757 46.4419 49.7972 44.6634 47.6102 44.6634Z" fill="#527F72" stroke="#527F72" stroke-width="1.08475"/>
<path d="M57.5248 48.6282H52.4679C51.9197 48.6282 51.4766 48.1851 51.4766 47.6369C51.4766 47.0886 51.9197 46.6455 52.4679 46.6455H57.5248C58.073 46.6455 58.5162 47.0886 58.5162 47.6369C58.5162 48.1851 58.073 48.6282 57.5248 48.6282Z" fill="#527F72" stroke="#527F72" stroke-width="1.08475"/>
<path d="M42.755 48.6282H29.6671C29.1189 48.6282 28.6758 48.1851 28.6758 47.6369C28.6758 47.0886 29.1189 46.6455 29.6671 46.6455H42.754C43.3022 46.6455 43.7454 47.0886 43.7454 47.6369C43.7454 48.1851 43.3022 48.6282 42.755 48.6282Z" fill="#527F72" stroke="#527F72" stroke-width="1.08475"/>
<path d="M12.7473 14.9229C12.2714 14.9229 11.8511 14.5789 11.7708 14.0941L11.0818 9.96611H8.94839C8.40017 9.96611 7.95703 9.52297 7.95703 8.97475C7.95703 8.42653 8.40017 7.9834 8.94839 7.9834H12.7631L13.7267 13.7689C13.8169 14.3092 13.4521 14.8198 12.9118 14.909C12.8553 14.9189 12.8018 14.9229 12.7473 14.9229Z" fill="#527F72" stroke="#527F72" stroke-width="1.08475"/>
<path d="M27.7959 19.8793H25.8132V17.8966C25.8132 17.3484 25.3701 16.9053 24.8219 16.9053C24.2736 16.9053 23.8305 17.3484 23.8305 17.8966V19.8793H21.8478C21.2996 19.8793 20.8564 20.3225 20.8564 20.8707C20.8564 21.4189 21.2996 21.862 21.8478 21.862H23.8305V23.8448C23.8305 24.393 24.2736 24.8361 24.8219 24.8361C25.3701 24.8361 25.8132 24.393 25.8132 23.8448V21.862H27.7959C28.3441 21.862 28.7873 21.4189 28.7873 20.8707C28.7873 20.3225 28.3432 19.8793 27.7959 19.8793Z" fill="#527F72" stroke="#527F72" stroke-width="1.08475"/>
<path d="M27.7959 31.7748H25.8132V29.7921C25.8132 29.2439 25.3701 28.8008 24.8219 28.8008C24.2736 28.8008 23.8305 29.2439 23.8305 29.7921V31.7748H21.8478C21.2996 31.7748 20.8564 32.218 20.8564 32.7662C20.8564 33.3144 21.2996 33.7576 21.8478 33.7576H23.8305V35.7403C23.8305 36.2885 24.2736 36.7316 24.8219 36.7316C25.3701 36.7316 25.8132 36.2885 25.8132 35.7403V33.7576H27.7959C28.3441 33.7576 28.7873 33.3144 28.7873 32.7662C28.7873 32.218 28.3432 31.7748 27.7959 31.7748Z" fill="#527F72" stroke="#527F72" stroke-width="1.08475"/>
<path d="M40.6836 19.8793H38.7009V17.8966C38.7009 17.3484 38.2578 16.9053 37.7096 16.9053C37.1613 16.9053 36.7182 17.3484 36.7182 17.8966V19.8793H34.7355C34.1873 19.8793 33.7441 20.3225 33.7441 20.8707C33.7441 21.4189 34.1873 21.862 34.7355 21.862H36.7182V23.8448C36.7182 24.393 37.1613 24.8361 37.7096 24.8361C38.2578 24.8361 38.7009 24.393 38.7009 23.8448V21.862H40.6836C41.2318 21.862 41.675 21.4189 41.675 20.8707C41.675 20.3225 41.2309 19.8793 40.6836 19.8793Z" fill="#527F72" stroke="#527F72" stroke-width="1.08475"/>
<path d="M40.6836 31.7748H38.7009V29.7921C38.7009 29.2439 38.2578 28.8008 37.7096 28.8008C37.1613 28.8008 36.7182 29.2439 36.7182 29.7921V31.7748H34.7355C34.1873 31.7748 33.7441 32.218 33.7441 32.7662C33.7441 33.3144 34.1873 33.7576 34.7355 33.7576H36.7182V35.7403C36.7182 36.2885 37.1613 36.7316 37.7096 36.7316C38.2578 36.7316 38.7009 36.2885 38.7009 35.7403V33.7576H40.6836C41.2318 33.7576 41.675 33.3144 41.675 32.7662C41.675 32.218 41.2309 31.7748 40.6836 31.7748Z" fill="#527F72" stroke="#527F72" stroke-width="1.08475"/>
<path d="M47.6222 21.862H49.6049V23.8448C49.6049 24.393 50.0481 24.8361 50.5963 24.8361C51.1445 24.8361 51.5876 24.393 51.5876 23.8448V21.862H53.5703C54.1186 21.862 54.5617 21.4189 54.5617 20.8707C54.5617 20.3225 54.1186 19.8793 53.5703 19.8793H51.5876V17.8966C51.5876 17.3484 51.1445 16.9053 50.5963 16.9053C50.0481 16.9053 49.6049 17.3484 49.6049 17.8966V19.8793H47.6222C47.074 19.8793 46.6309 20.3225 46.6309 20.8707C46.6309 21.4189 47.074 21.862 47.6222 21.862Z" fill="#527F72" stroke="#527F72" stroke-width="1.08475"/>
<path d="M53.5703 31.7748H51.5876V29.7921C51.5876 29.2439 51.1445 28.8008 50.5963 28.8008C50.0481 28.8008 49.6049 29.2439 49.6049 29.7921V31.7748H47.6222C47.074 31.7748 46.6309 32.218 46.6309 32.7662C46.6309 33.3144 47.074 33.7576 47.6222 33.7576H49.6049V35.7403C49.6049 36.2885 50.0481 36.7316 50.5963 36.7316C51.1445 36.7316 51.5876 36.2885 51.5876 35.7403V33.7576H53.5703C54.1186 33.7576 54.5617 33.3144 54.5617 32.7662C54.5617 32.218 54.1176 31.7748 53.5703 31.7748Z" fill="#527F72" stroke="#527F72" stroke-width="1.08475"/>
<path d="M19.9537 48.6284H16.8795C15.4857 48.6284 14.1454 48.0306 13.2046 46.9907C12.2658 45.9527 11.8078 44.5589 11.9476 43.166C12.2004 40.6698 14.4487 38.7148 17.0659 38.7148C17.6141 38.7148 18.0573 39.158 18.0573 39.7062C18.0573 40.2544 17.6141 40.6976 17.0659 40.6976C15.453 40.6976 14.071 41.8693 13.9204 43.3643C13.8341 44.2119 14.1028 45.0278 14.6748 45.6603C15.2418 46.2868 16.0448 46.6457 16.8795 46.6457H19.9537C20.502 46.6457 20.9451 47.0888 20.9451 47.637C20.9451 48.1853 20.501 48.6284 19.9537 48.6284Z" fill="#527F72" stroke="#527F72" stroke-width="1.08475"/>
<path d="M5.97363 6.54199C7.31647 6.54199 8.40504 7.63085 8.40527 8.97363C8.40527 10.3166 7.31662 11.4053 5.97363 11.4053C4.63085 11.405 3.54199 10.3165 3.54199 8.97363C3.54223 7.63099 4.63099 6.54223 5.97363 6.54199Z" fill="#59E63D" stroke="#527F72" stroke-width="1.08475"/>
<path d="M85.8379 9.98242C88.2988 10.0527 90.3379 10.1055 91.9551 10.1406C93.6074 10.1406 94.9434 10.1406 95.9629 10.1406H98.7578H114.473C114.543 10.8438 114.596 11.5293 114.631 12.1973C114.701 12.8301 114.736 13.3926 114.736 13.8848C114.736 14.4824 114.719 15.0273 114.684 15.5195C114.648 16.0117 114.596 16.5391 114.525 17.1016C114.455 17.5938 114.385 18.1211 114.314 18.6836C114.244 19.2461 114.121 19.8262 113.945 20.4238C113.453 18.5254 112.785 17.084 111.941 16.0996C111.133 15.1152 110.307 14.3945 109.463 13.9375C108.479 13.4102 107.441 13.1289 106.352 13.0938C104.91 13.1641 103.785 13.2871 102.977 13.4629C102.168 13.6387 101.535 13.8848 101.078 14.2012C100.621 14.5176 100.27 14.8867 100.023 15.3086C99.8125 15.6953 99.584 16.1348 99.3379 16.627C99.127 17.0488 98.9336 17.6992 98.7578 18.5781C98.582 19.3164 98.4062 20.3184 98.2305 21.584C98.0898 22.8496 97.9316 24.4844 97.7559 26.4883C98.7051 26.207 99.4609 25.9434 100.023 25.6973C100.621 25.4512 101.096 25.2402 101.447 25.0645C101.834 24.8535 102.115 24.6602 102.291 24.4844C102.432 24.2734 102.643 23.8867 102.924 23.3242C103.135 22.832 103.416 22.1641 103.768 21.3203C104.154 20.4766 104.611 19.3164 105.139 17.8398C105.209 19.457 105.244 20.8105 105.244 21.9004C105.244 22.9551 105.262 23.8164 105.297 24.4844C105.297 25.2578 105.314 25.873 105.35 26.3301V28.334C105.35 29.0723 105.35 30.0742 105.35 31.3398C105.385 32.5703 105.438 34.1348 105.508 36.0332C105.086 34.7324 104.699 33.7129 104.348 32.9746C104.031 32.2012 103.75 31.6211 103.504 31.2344C103.223 30.7773 102.977 30.4609 102.766 30.2852C102.52 30.2148 102.186 30.1445 101.764 30.0742C101.377 30.0391 100.885 30.0215 100.287 30.0215C99.7246 30.0215 99.0039 30.1094 98.125 30.2852C98.0195 32.2188 98.002 33.7832 98.0723 34.9785C98.1777 36.1387 98.3184 37.0352 98.4941 37.668C98.6699 38.4062 98.8809 38.9336 99.127 39.25C99.4434 39.5664 100.076 39.8301 101.025 40.041C101.975 40.2168 103.047 40.2871 104.242 40.252C105.473 40.1816 106.721 39.9707 107.986 39.6191C109.252 39.2676 110.377 38.6875 111.361 37.8789C112.1 37.2109 112.891 36.3672 113.734 35.3477C114.438 34.4688 115.211 33.3613 116.055 32.0254C116.934 30.6895 117.795 29.0723 118.639 27.1738C118.498 28.7559 118.393 30.0742 118.322 31.1289C118.287 32.1484 118.234 32.9746 118.164 33.6074C118.094 34.3457 118.041 34.9082 118.006 35.2949C118.006 35.7168 117.953 36.3145 117.848 37.0879C117.777 37.7559 117.654 38.6699 117.479 39.8301C117.338 40.9551 117.145 42.3965 116.898 44.1543C115.246 44.1895 113.682 44.2246 112.205 44.2598C110.729 44.2598 109.428 44.2773 108.303 44.3125C106.967 44.3477 105.736 44.3828 104.611 44.418C103.451 44.418 102.168 44.4707 100.762 44.5762C99.5312 44.6465 98.0723 44.752 96.3848 44.8926C94.7324 45.0332 92.9043 45.2266 90.9004 45.4727C91.0762 43.082 91.1992 40.832 91.2695 38.7227C91.375 36.5781 91.4453 34.6973 91.4805 33.0801C91.5156 31.1816 91.5156 29.4238 91.4805 27.8066C91.6562 23.7637 91.5859 20.4941 91.2695 17.998C90.9531 15.502 90.584 13.9023 90.1621 13.1992C89.9512 12.9531 89.6523 12.6543 89.2656 12.3027C88.9492 12.0215 88.5098 11.6875 87.9473 11.3008C87.3848 10.9141 86.6816 10.4746 85.8379 9.98242ZM138.361 26.6465C139.732 26.6816 140.98 26.6992 142.105 26.6992C143.266 26.6992 144.268 26.6992 145.111 26.6992C146.096 26.6992 146.992 26.6816 147.801 26.6465C148.645 26.6465 149.717 26.6113 151.018 26.541C152.143 26.5059 153.549 26.4531 155.236 26.3828C156.959 26.3125 159.051 26.2246 161.512 26.1191L161.248 31.498C159.279 31.3574 157.627 31.2695 156.291 31.2344C154.99 31.1641 153.936 31.1113 153.127 31.0762C152.178 31.041 151.404 31.041 150.807 31.0762C150.209 31.1113 149.365 31.1641 148.275 31.2344C147.361 31.3047 146.113 31.3926 144.531 31.498C142.984 31.5684 141.016 31.6914 138.625 31.8672L138.361 26.6465ZM195.578 7.0293C196.809 7.0293 197.916 7.24023 198.9 7.66211C199.92 8.04883 200.852 8.48828 201.695 8.98047C202.574 9.47266 203.4 9.92969 204.174 10.3516C204.947 10.7383 205.738 10.9316 206.547 10.9316C207.18 10.8965 207.9 10.8086 208.709 10.668C209.412 10.5273 210.221 10.3164 211.135 10.0352C212.084 9.71875 213.139 9.26172 214.299 8.66406C213.139 9.78906 212.189 10.7383 211.451 11.5117C210.748 12.25 210.203 12.8652 209.816 13.3574C209.359 13.9199 209.025 14.3594 208.814 14.6758C208.604 15.0625 208.287 15.6426 207.865 16.416C207.479 17.1191 206.951 18.0684 206.283 19.2637C205.615 20.4238 204.771 21.9531 203.752 23.8516C203.752 21.4258 203.506 19.5449 203.014 18.209C202.557 16.873 202.047 15.8535 201.484 15.1504C200.816 14.3418 200.061 13.832 199.217 13.6211C198.443 13.5156 197.67 13.6562 196.896 14.043C196.123 14.3945 195.35 14.9219 194.576 15.625C193.838 16.3281 193.117 17.1719 192.414 18.1562C191.746 19.1055 191.131 20.1074 190.568 21.1621C190.041 22.2168 189.602 23.2891 189.25 24.3789C188.898 25.4336 188.67 26.418 188.564 27.332C188.459 28.1406 188.441 29.0898 188.512 30.1797C188.582 31.2344 188.74 32.3242 188.986 33.4492C189.232 34.5391 189.549 35.6113 189.936 36.666C190.322 37.7207 190.797 38.6699 191.359 39.5137C191.957 40.3223 192.625 40.9902 193.363 41.5176C194.102 42.0098 194.945 42.2383 195.895 42.2031C196.949 42.1328 197.986 41.8164 199.006 41.2539C199.885 40.7969 200.781 40.0938 201.695 39.1445C202.609 38.1602 203.4 36.7715 204.068 34.9785L211.873 36.4023C209.623 39.1445 207.426 41.2012 205.281 42.5723C203.172 43.9434 201.273 44.9102 199.586 45.4727C197.617 46.1055 195.754 46.4043 193.996 46.3691C191.781 46.123 189.707 45.4551 187.773 44.3652C185.84 43.2754 184.17 41.957 182.764 40.4102C181.393 38.8281 180.32 37.1055 179.547 35.2422C178.773 33.3789 178.439 31.5508 178.545 29.7578C178.615 28.5625 178.861 27.1738 179.283 25.5918C179.705 23.9746 180.268 22.3223 180.971 20.6348C181.709 18.9473 182.588 17.2949 183.607 15.6777C184.627 14.0605 185.752 12.6191 186.982 11.3535C188.213 10.0527 189.549 9.01562 190.99 8.24219C192.467 7.43359 193.996 7.0293 195.578 7.0293ZM229.75 6.23828C231.648 6.30859 233.564 6.66016 235.498 7.29297C237.467 7.89063 239.277 8.875 240.93 10.2461C242.582 11.582 243.988 13.3223 245.148 15.4668C246.309 17.5762 247.029 20.1602 247.311 23.2188C247.557 25.7148 247.24 28.1934 246.361 30.6543C245.518 33.0801 244.34 35.3125 242.828 37.3516C241.316 39.3906 239.576 41.1309 237.607 42.5723C235.639 43.9785 233.67 44.9102 231.701 45.3672C230.506 45.6484 229.188 45.6836 227.746 45.4727C226.34 45.2266 224.898 44.7871 223.422 44.1543C221.98 43.4863 220.557 42.6426 219.15 41.623C217.779 40.6035 216.531 39.4434 215.406 38.1426C214.281 36.8066 213.332 35.3652 212.559 33.8184C211.82 32.2715 211.363 30.6543 211.188 28.9668C211.012 27.5605 210.994 26.0137 211.135 24.3262C211.311 22.6035 211.645 20.8984 212.137 19.2109C212.664 17.4883 213.385 15.8359 214.299 14.2539C215.248 12.6367 216.443 11.2305 217.885 10.0352C219.326 8.80469 221.014 7.85547 222.947 7.1875C224.916 6.48437 227.184 6.16797 229.75 6.23828ZM220.311 27.5957C219.818 31.3574 220.17 34.3809 221.365 36.666C222.596 38.9512 224.441 40.3398 226.902 40.832C228.098 41.0781 229.24 40.832 230.33 40.0938C231.455 39.3203 232.475 38.2129 233.389 36.7715C234.303 35.3301 235.094 33.6426 235.762 31.709C236.43 29.7754 236.922 27.7539 237.238 25.6445C237.555 23.5352 237.572 21.6367 237.291 19.9492C237.045 18.2266 236.605 16.7676 235.973 15.5723C235.34 14.3418 234.566 13.3926 233.652 12.7246C232.773 12.0566 231.859 11.6875 230.91 11.6172C229.258 11.5117 227.816 11.9512 226.586 12.9355C225.355 13.8848 224.318 15.1328 223.475 16.6797C222.631 18.2266 221.945 19.9668 221.418 21.9004C220.926 23.834 220.557 25.7324 220.311 27.5957ZM248.207 8.18945C249.332 8.22461 250.316 8.24219 251.16 8.24219C252.004 8.20703 252.689 8.18945 253.217 8.18945H254.746C255.133 8.1543 255.607 8.13672 256.17 8.13672C256.662 8.13672 257.26 8.13672 257.963 8.13672C258.666 8.13672 259.475 8.1543 260.389 8.18945C260.67 9.17383 260.986 10.1406 261.338 11.0898C261.725 12.0039 262.059 12.8301 262.34 13.5684C262.691 14.4473 263.043 15.2734 263.395 16.0469C263.746 16.8203 264.168 17.752 264.66 18.8418C265.082 19.7559 265.592 20.8809 266.189 22.2168C266.787 23.5176 267.49 25.0117 268.299 26.6992C268.686 25.6094 269.037 24.6074 269.354 23.6934C269.705 22.7793 270.004 21.9883 270.25 21.3203C270.531 20.5469 270.76 19.8438 270.936 19.2109C271.111 18.5781 271.305 17.8047 271.516 16.8906C271.691 16.1172 271.885 15.1855 272.096 14.0957C272.342 13.0059 272.588 11.7402 272.834 10.2988C273.854 10.2988 274.768 10.2988 275.576 10.2988C276.385 10.2988 277.088 10.2812 277.686 10.2461C278.354 10.2461 278.951 10.2285 279.479 10.1934C280.041 10.1934 280.797 10.1582 281.746 10.0879C282.555 10.0176 283.627 9.96484 284.963 9.92969C286.334 9.85937 288.021 9.77148 290.025 9.66602C289.287 10.1934 288.689 10.7207 288.232 11.248C287.811 11.7402 287.477 12.1797 287.23 12.5664C286.949 13.0234 286.773 13.4629 286.703 13.8848C286.633 14.2363 286.562 15.0449 286.492 16.3105C286.457 17.5762 286.404 19.0879 286.334 20.8457C286.299 22.5684 286.264 24.4141 286.229 26.3828C286.229 28.3516 286.246 30.2148 286.281 31.9727C286.316 33.7305 286.369 35.2598 286.439 36.5605C286.545 37.8262 286.686 38.6348 286.861 38.9863C287.107 39.4082 287.441 39.9004 287.863 40.4629C288.25 40.9551 288.742 41.5176 289.34 42.1504C289.973 42.7832 290.799 43.4863 291.818 44.2598C290.201 44.3301 288.848 44.3828 287.758 44.418C286.703 44.4531 285.824 44.4883 285.121 44.5234C284.312 44.5586 283.662 44.5762 283.17 44.5762C282.643 44.5762 281.922 44.5938 281.008 44.6289C280.199 44.6641 279.127 44.7168 277.791 44.7871C276.455 44.8223 274.732 44.8926 272.623 44.998C273.115 44.4355 273.572 43.873 273.994 43.3105C274.416 42.748 274.768 42.2383 275.049 41.7812C275.4 41.2539 275.699 40.7441 275.945 40.252C276.191 39.584 276.385 38.3711 276.525 36.6133C276.666 35.1016 276.771 32.9395 276.842 30.127C276.912 27.2793 276.912 23.4648 276.842 18.6836C276.174 19.7734 275.576 20.8633 275.049 21.9531C274.557 23.0078 274.117 23.9746 273.73 24.8535C273.309 25.873 272.922 26.8574 272.57 27.8066C272.219 28.791 271.85 29.8809 271.463 31.0762C271.111 32.0957 270.689 33.3086 270.197 34.7148C269.74 36.1211 269.213 37.668 268.615 39.3555L266.611 39.4609C266.33 38.0547 266.049 36.7891 265.768 35.6641C265.486 34.5039 265.205 33.5195 264.924 32.7109C264.607 31.7617 264.291 30.918 263.975 30.1797C263.623 29.4414 263.236 28.6152 262.814 27.7012C262.428 26.9277 261.953 26.0137 261.391 24.959C260.863 23.9043 260.248 22.7266 259.545 21.4258C259.193 25.0117 258.982 27.9297 258.912 30.1797C258.842 32.3945 258.842 34.1172 258.912 35.3477C258.982 36.8242 259.088 37.8965 259.229 38.5645C259.439 39.1621 259.773 39.8301 260.23 40.5684C260.617 41.2012 261.145 41.957 261.812 42.8359C262.516 43.6797 263.412 44.6289 264.502 45.6836C263.729 45.6836 262.92 45.6836 262.076 45.6836C261.232 45.6836 260.459 45.7012 259.756 45.7363C258.912 45.7715 258.086 45.7891 257.277 45.7891C256.434 45.8242 255.449 45.877 254.324 45.9473C253.34 46.0176 252.162 46.0879 250.791 46.1582C249.42 46.2285 247.838 46.3516 246.045 46.5273C246.818 46.0352 247.451 45.5605 247.943 45.1035C248.436 44.6113 248.822 44.1719 249.104 43.7852C249.455 43.3281 249.719 42.8711 249.895 42.4141C250 42.1328 250.088 41.5176 250.158 40.5684C250.264 39.6191 250.352 38.459 250.422 37.0879C250.527 35.7168 250.598 34.1875 250.633 32.5C250.703 30.8125 250.756 29.1074 250.791 27.3848C250.861 25.627 250.914 23.9219 250.949 22.2695C250.984 20.582 251.002 19.0703 251.002 17.7344C251.037 16.3633 251.055 15.2207 251.055 14.3066C251.055 13.3926 251.055 12.8125 251.055 12.5664C250.949 12.0391 250.791 11.5117 250.58 10.9844C250.404 10.5273 250.123 10.0527 249.736 9.56055C249.35 9.06836 248.84 8.61133 248.207 8.18945ZM290.764 8.18945C291.889 8.22461 292.873 8.24219 293.717 8.24219C294.561 8.20703 295.246 8.18945 295.773 8.18945H297.303C297.689 8.1543 298.164 8.13672 298.727 8.13672C299.219 8.13672 299.816 8.13672 300.52 8.13672C301.223 8.13672 302.031 8.1543 302.945 8.18945C303.227 9.17383 303.543 10.1406 303.895 11.0898C304.281 12.0039 304.615 12.8301 304.896 13.5684C305.248 14.4473 305.6 15.2734 305.951 16.0469C306.303 16.8203 306.725 17.752 307.217 18.8418C307.639 19.7559 308.148 20.8809 308.746 22.2168C309.344 23.5176 310.047 25.0117 310.855 26.6992C311.242 25.6094 311.594 24.6074 311.91 23.6934C312.262 22.7793 312.561 21.9883 312.807 21.3203C313.088 20.5469 313.316 19.8438 313.492 19.2109C313.668 18.5781 313.861 17.8047 314.072 16.8906C314.248 16.1172 314.441 15.1855 314.652 14.0957C314.898 13.0059 315.145 11.7402 315.391 10.2988C316.41 10.2988 317.324 10.2988 318.133 10.2988C318.941 10.2988 319.645 10.2812 320.242 10.2461C320.91 10.2461 321.508 10.2285 322.035 10.1934C322.598 10.1934 323.354 10.1582 324.303 10.0879C325.111 10.0176 326.184 9.96484 327.52 9.92969C328.891 9.85937 330.578 9.77148 332.582 9.66602C331.844 10.1934 331.246 10.7207 330.789 11.248C330.367 11.7402 330.033 12.1797 329.787 12.5664C329.506 13.0234 329.33 13.4629 329.26 13.8848C329.189 14.2363 329.119 15.0449 329.049 16.3105C329.014 17.5762 328.961 19.0879 328.891 20.8457C328.855 22.5684 328.82 24.4141 328.785 26.3828C328.785 28.3516 328.803 30.2148 328.838 31.9727C328.873 33.7305 328.926 35.2598 328.996 36.5605C329.102 37.8262 329.242 38.6348 329.418 38.9863C329.664 39.4082 329.998 39.9004 330.42 40.4629C330.807 40.9551 331.299 41.5176 331.896 42.1504C332.529 42.7832 333.355 43.4863 334.375 44.2598C332.758 44.3301 331.404 44.3828 330.314 44.418C329.26 44.4531 328.381 44.4883 327.678 44.5234C326.869 44.5586 326.219 44.5762 325.727 44.5762C325.199 44.5762 324.479 44.5938 323.564 44.6289C322.756 44.6641 321.684 44.7168 320.348 44.7871C319.012 44.8223 317.289 44.8926 315.18 44.998C315.672 44.4355 316.129 43.873 316.551 43.3105C316.973 42.748 317.324 42.2383 317.605 41.7812C317.957 41.2539 318.256 40.7441 318.502 40.252C318.748 39.584 318.941 38.3711 319.082 36.6133C319.223 35.1016 319.328 32.9395 319.398 30.127C319.469 27.2793 319.469 23.4648 319.398 18.6836C318.73 19.7734 318.133 20.8633 317.605 21.9531C317.113 23.0078 316.674 23.9746 316.287 24.8535C315.865 25.873 315.479 26.8574 315.127 27.8066C314.775 28.791 314.406 29.8809 314.02 31.0762C313.668 32.0957 313.246 33.3086 312.754 34.7148C312.297 36.1211 311.77 37.668 311.172 39.3555L309.168 39.4609C308.887 38.0547 308.605 36.7891 308.324 35.6641C308.043 34.5039 307.762 33.5195 307.48 32.7109C307.164 31.7617 306.848 30.918 306.531 30.1797C306.18 29.4414 305.793 28.6152 305.371 27.7012C304.984 26.9277 304.51 26.0137 303.947 24.959C303.42 23.9043 302.805 22.7266 302.102 21.4258C301.75 25.0117 301.539 27.9297 301.469 30.1797C301.398 32.3945 301.398 34.1172 301.469 35.3477C301.539 36.8242 301.645 37.8965 301.785 38.5645C301.996 39.1621 302.33 39.8301 302.787 40.5684C303.174 41.2012 303.701 41.957 304.369 42.8359C305.072 43.6797 305.969 44.6289 307.059 45.6836C306.285 45.6836 305.477 45.6836 304.633 45.6836C303.789 45.6836 303.016 45.7012 302.312 45.7363C301.469 45.7715 300.643 45.7891 299.834 45.7891C298.99 45.8242 298.006 45.877 296.881 45.9473C295.896 46.0176 294.719 46.0879 293.348 46.1582C291.977 46.2285 290.395 46.3516 288.602 46.5273C289.375 46.0352 290.008 45.5605 290.5 45.1035C290.992 44.6113 291.379 44.1719 291.66 43.7852C292.012 43.3281 292.275 42.8711 292.451 42.4141C292.557 42.1328 292.645 41.5176 292.715 40.5684C292.82 39.6191 292.908 38.459 292.979 37.0879C293.084 35.7168 293.154 34.1875 293.189 32.5C293.26 30.8125 293.312 29.1074 293.348 27.3848C293.418 25.627 293.471 23.9219 293.506 22.2695C293.541 20.582 293.559 19.0703 293.559 17.7344C293.594 16.3633 293.611 15.2207 293.611 14.3066C293.611 13.3926 293.611 12.8125 293.611 12.5664C293.506 12.0391 293.348 11.5117 293.137 10.9844C292.961 10.5273 292.68 10.0527 292.293 9.56055C291.906 9.06836 291.396 8.61133 290.764 8.18945ZM331.422 9.98242C333.883 10.0527 335.922 10.1055 337.539 10.1406C339.191 10.1406 340.527 10.1406 341.547 10.1406H344.342H360.057C360.127 10.8438 360.18 11.5293 360.215 12.1973C360.285 12.8301 360.32 13.3926 360.32 13.8848C360.32 14.4824 360.303 15.0273 360.268 15.5195C360.232 16.0117 360.18 16.5391 360.109 17.1016C360.039 17.5938 359.969 18.1211 359.898 18.6836C359.828 19.2461 359.705 19.8262 359.529 20.4238C359.037 18.5254 358.369 17.084 357.525 16.0996C356.717 15.1152 355.891 14.3945 355.047 13.9375C354.062 13.4102 353.025 13.1289 351.936 13.0938C350.494 13.1641 349.369 13.2871 348.561 13.4629C347.752 13.6387 347.119 13.8848 346.662 14.2012C346.205 14.5176 345.854 14.8867 345.607 15.3086C345.396 15.6953 345.168 16.1348 344.922 16.627C344.711 17.0488 344.518 17.6992 344.342 18.5781C344.166 19.3164 343.99 20.3184 343.814 21.584C343.674 22.8496 343.516 24.4844 343.34 26.4883C344.289 26.207 345.045 25.9434 345.607 25.6973C346.205 25.4512 346.68 25.2402 347.031 25.0645C347.418 24.8535 347.699 24.6602 347.875 24.4844C348.016 24.2734 348.227 23.8867 348.508 23.3242C348.719 22.832 349 22.1641 349.352 21.3203C349.738 20.4766 350.195 19.3164 350.723 17.8398C350.793 19.457 350.828 20.8105 350.828 21.9004C350.828 22.9551 350.846 23.8164 350.881 24.4844C350.881 25.2578 350.898 25.873 350.934 26.3301V28.334C350.934 29.0723 350.934 30.0742 350.934 31.3398C350.969 32.5703 351.021 34.1348 351.092 36.0332C350.67 34.7324 350.283 33.7129 349.932 32.9746C349.615 32.2012 349.334 31.6211 349.088 31.2344C348.807 30.7773 348.561 30.4609 348.35 30.2852C348.104 30.2148 347.77 30.1445 347.348 30.0742C346.961 30.0391 346.469 30.0215 345.871 30.0215C345.309 30.0215 344.588 30.1094 343.709 30.2852C343.604 32.2188 343.586 33.7832 343.656 34.9785C343.762 36.1387 343.902 37.0352 344.078 37.668C344.254 38.4062 344.465 38.9336 344.711 39.25C345.027 39.5664 345.66 39.8301 346.609 40.041C347.559 40.2168 348.631 40.2871 349.826 40.252C351.057 40.1816 352.305 39.9707 353.57 39.6191C354.836 39.2676 355.961 38.6875 356.945 37.8789C357.684 37.2109 358.475 36.3672 359.318 35.3477C360.021 34.4688 360.795 33.3613 361.639 32.0254C362.518 30.6895 363.379 29.0723 364.223 27.1738C364.082 28.7559 363.977 30.0742 363.906 31.1289C363.871 32.1484 363.818 32.9746 363.748 33.6074C363.678 34.3457 363.625 34.9082 363.59 35.2949C363.59 35.7168 363.537 36.3145 363.432 37.0879C363.361 37.7559 363.238 38.6699 363.062 39.8301C362.922 40.9551 362.729 42.3965 362.482 44.1543C360.83 44.1895 359.266 44.2246 357.789 44.2598C356.312 44.2598 355.012 44.2773 353.887 44.3125C352.551 44.3477 351.32 44.3828 350.195 44.418C349.035 44.418 347.752 44.4707 346.346 44.5762C345.115 44.6465 343.656 44.752 341.969 44.8926C340.316 45.0332 338.488 45.2266 336.484 45.4727C336.66 43.082 336.783 40.832 336.854 38.7227C336.959 36.5781 337.029 34.6973 337.064 33.0801C337.1 31.1816 337.1 29.4238 337.064 27.8066C337.24 23.7637 337.17 20.4941 336.854 17.998C336.537 15.502 336.168 13.9023 335.746 13.1992C335.535 12.9531 335.236 12.6543 334.85 12.3027C334.533 12.0215 334.094 11.6875 333.531 11.3008C332.969 10.9141 332.266 10.4746 331.422 9.98242ZM363.959 7.50391C365.084 7.67969 366.104 7.83789 367.018 7.97852C367.932 8.08398 368.723 8.17187 369.391 8.24219C370.164 8.34766 370.85 8.43555 371.447 8.50586C372.186 8.61133 373.293 8.48828 374.77 8.13672C376.246 7.75 377.863 7.39844 379.621 7.08203C381.414 6.73047 383.242 6.53711 385.105 6.50195C386.969 6.43164 388.674 6.76562 390.221 7.50391C391.768 8.24219 393.033 8.98047 394.018 9.71875C395.002 10.457 395.775 11.248 396.338 12.0918C396.936 12.9004 397.357 13.7617 397.604 14.6758C397.85 15.5898 397.99 16.5918 398.025 17.6816C397.99 19.2988 397.604 20.8633 396.865 22.375C396.549 23.0078 396.127 23.6758 395.6 24.3789C395.107 25.0469 394.492 25.6973 393.754 26.3301C393.016 26.9629 392.137 27.5605 391.117 28.123C390.133 28.6855 388.973 29.1777 387.637 29.5996C388.938 29.9863 390.01 30.4434 390.854 30.9707C391.732 31.498 392.436 31.9902 392.963 32.4473C393.596 33.0098 394.07 33.5547 394.387 34.082C394.773 34.8203 395.037 35.4531 395.178 35.9805C395.318 36.5078 395.406 37.0176 395.441 37.5098C395.512 37.9668 395.6 38.4414 395.705 38.9336C395.811 39.4258 396.039 39.9883 396.391 40.6211C396.672 41.1133 397.006 41.623 397.393 42.1504C397.744 42.6074 398.148 43.0996 398.605 43.627C399.098 44.1543 399.695 44.6641 400.398 45.1562C399.414 45.1914 398.5 45.209 397.656 45.209C396.848 45.209 396.145 45.209 395.547 45.209C394.844 45.209 394.176 45.1914 393.543 45.1562C392.91 45.1211 392.119 45.1035 391.17 45.1035C390.361 45.1035 389.324 45.1035 388.059 45.1035C386.828 45.1035 385.334 45.1211 383.576 45.1562C384.35 44.5586 384.982 43.9609 385.475 43.3633C385.967 42.7656 386.354 42.2207 386.635 41.7285C386.951 41.166 387.18 40.6211 387.32 40.0938C387.496 39.1445 387.514 38.1602 387.373 37.1406C387.268 36.2617 386.986 35.2949 386.529 34.2402C386.072 33.1504 385.334 32.0605 384.314 30.9707C383.295 31.1465 382.434 31.2871 381.73 31.3926C381.062 31.4629 380.482 31.5332 379.99 31.6035C379.428 31.6738 378.971 31.7266 378.619 31.7617C378.303 31.7969 377.951 31.832 377.564 31.8672C377.248 31.9023 376.896 31.9551 376.51 32.0254C376.158 32.0605 375.824 32.1133 375.508 32.1836C375.438 33.6953 375.438 35.0137 375.508 36.1387C375.578 37.2285 375.666 38.1426 375.771 38.8809C375.912 39.7598 376.07 40.5156 376.246 41.1484C376.422 41.7812 376.668 42.3965 376.984 42.9941C377.23 43.4863 377.547 44.0137 377.934 44.5762C378.32 45.1035 378.76 45.543 379.252 45.8945C378.338 45.8945 377.459 45.8945 376.615 45.8945C375.807 45.8945 375.068 45.877 374.4 45.8418C373.627 45.8418 372.889 45.8242 372.186 45.7891C371.482 45.7539 370.691 45.7363 369.812 45.7363C369.074 45.7363 368.195 45.7363 367.176 45.7363C366.191 45.7363 365.119 45.7539 363.959 45.7891C364.873 44.8398 365.594 44.0312 366.121 43.3633C366.648 42.6953 367.053 42.1328 367.334 41.6758C367.65 41.1836 367.844 40.7617 367.914 40.4102C367.984 39.8477 368.037 38.8457 368.072 37.4043C368.143 35.9277 368.195 34.2402 368.23 32.3418C368.266 30.4434 368.283 28.457 368.283 26.3828C368.283 24.3086 368.266 22.375 368.23 20.582C368.195 18.7539 368.16 17.1895 368.125 15.8887C368.09 14.5879 368.055 13.7617 368.02 13.4102C367.914 12.7773 367.686 12.1445 367.334 11.5117C367.053 10.9492 366.648 10.3164 366.121 9.61328C365.594 8.91016 364.873 8.20703 363.959 7.50391ZM383.893 26.0664C384.244 25.8555 384.543 25.6445 384.789 25.4336C385.035 25.2227 385.246 24.8887 385.422 24.4316C385.598 23.9395 385.738 23.2539 385.844 22.375C385.984 21.4961 386.143 20.3008 386.318 18.7891C386.459 17.2773 386.354 16.0293 386.002 15.0449C385.686 14.0605 385.246 13.2871 384.684 12.7246C384.156 12.127 383.559 11.7227 382.891 11.5117C382.258 11.2656 381.695 11.1426 381.203 11.1426C380.219 11.1426 379.252 11.4414 378.303 12.0391C377.354 12.6367 376.633 13.4453 376.141 14.4648C375.965 14.9219 375.807 15.6777 375.666 16.7324C375.561 17.6465 375.49 18.9121 375.455 20.5293C375.42 22.1465 375.473 24.2734 375.613 26.9102C376.949 27.1211 378.127 27.209 379.146 27.1738C380.166 27.1035 381.027 26.9805 381.73 26.8047C382.574 26.6289 383.295 26.3828 383.893 26.0664ZM415.322 7.0293C416.553 7.0293 417.66 7.24023 418.645 7.66211C419.664 8.04883 420.596 8.48828 421.439 8.98047C422.318 9.47266 423.145 9.92969 423.918 10.3516C424.691 10.7383 425.482 10.9316 426.291 10.9316C426.924 10.8965 427.645 10.8086 428.453 10.668C429.156 10.5273 429.965 10.3164 430.879 10.0352C431.828 9.71875 432.883 9.26172 434.043 8.66406C432.883 9.78906 431.934 10.7383 431.195 11.5117C430.492 12.25 429.947 12.8652 429.561 13.3574C429.104 13.9199 428.77 14.3594 428.559 14.6758C428.348 15.0625 428.031 15.6426 427.609 16.416C427.223 17.1191 426.695 18.0684 426.027 19.2637C425.359 20.4238 424.516 21.9531 423.496 23.8516C423.496 21.4258 423.25 19.5449 422.758 18.209C422.301 16.873 421.791 15.8535 421.229 15.1504C420.561 14.3418 419.805 13.832 418.961 13.6211C418.188 13.5156 417.414 13.6562 416.641 14.043C415.867 14.3945 415.094 14.9219 414.32 15.625C413.582 16.3281 412.861 17.1719 412.158 18.1562C411.49 19.1055 410.875 20.1074 410.312 21.1621C409.785 22.2168 409.346 23.2891 408.994 24.3789C408.643 25.4336 408.414 26.418 408.309 27.332C408.203 28.1406 408.186 29.0898 408.256 30.1797C408.326 31.2344 408.484 32.3242 408.73 33.4492C408.977 34.5391 409.293 35.6113 409.68 36.666C410.066 37.7207 410.541 38.6699 411.104 39.5137C411.701 40.3223 412.369 40.9902 413.107 41.5176C413.846 42.0098 414.689 42.2383 415.639 42.2031C416.693 42.1328 417.73 41.8164 418.75 41.2539C419.629 40.7969 420.525 40.0938 421.439 39.1445C422.354 38.1602 423.145 36.7715 423.812 34.9785L431.617 36.4023C429.367 39.1445 427.17 41.2012 425.025 42.5723C422.916 43.9434 421.018 44.9102 419.33 45.4727C417.361 46.1055 415.498 46.4043 413.74 46.3691C411.525 46.123 409.451 45.4551 407.518 44.3652C405.584 43.2754 403.914 41.957 402.508 40.4102C401.137 38.8281 400.064 37.1055 399.291 35.2422C398.518 33.3789 398.184 31.5508 398.289 29.7578C398.359 28.5625 398.605 27.1738 399.027 25.5918C399.449 23.9746 400.012 22.3223 400.715 20.6348C401.453 18.9473 402.332 17.2949 403.352 15.6777C404.371 14.0605 405.496 12.6191 406.727 11.3535C407.957 10.0527 409.293 9.01562 410.734 8.24219C412.211 7.43359 413.74 7.0293 415.322 7.0293ZM429.191 9.98242C431.652 10.0527 433.691 10.1055 435.309 10.1406C436.961 10.1406 438.297 10.1406 439.316 10.1406H442.111H457.826C457.896 10.8438 457.949 11.5293 457.984 12.1973C458.055 12.8301 458.09 13.3926 458.09 13.8848C458.09 14.4824 458.072 15.0273 458.037 15.5195C458.002 16.0117 457.949 16.5391 457.879 17.1016C457.809 17.5938 457.738 18.1211 457.668 18.6836C457.598 19.2461 457.475 19.8262 457.299 20.4238C456.807 18.5254 456.139 17.084 455.295 16.0996C454.486 15.1152 453.66 14.3945 452.816 13.9375C451.832 13.4102 450.795 13.1289 449.705 13.0938C448.264 13.1641 447.139 13.2871 446.33 13.4629C445.521 13.6387 444.889 13.8848 444.432 14.2012C443.975 14.5176 443.623 14.8867 443.377 15.3086C443.166 15.6953 442.938 16.1348 442.691 16.627C442.48 17.0488 442.287 17.6992 442.111 18.5781C441.936 19.3164 441.76 20.3184 441.584 21.584C441.443 22.8496 441.285 24.4844 441.109 26.4883C442.059 26.207 442.814 25.9434 443.377 25.6973C443.975 25.4512 444.449 25.2402 444.801 25.0645C445.188 24.8535 445.469 24.6602 445.645 24.4844C445.785 24.2734 445.996 23.8867 446.277 23.3242C446.488 22.832 446.77 22.1641 447.121 21.3203C447.508 20.4766 447.965 19.3164 448.492 17.8398C448.562 19.457 448.598 20.8105 448.598 21.9004C448.598 22.9551 448.615 23.8164 448.65 24.4844C448.65 25.2578 448.668 25.873 448.703 26.3301V28.334C448.703 29.0723 448.703 30.0742 448.703 31.3398C448.738 32.5703 448.791 34.1348 448.861 36.0332C448.439 34.7324 448.053 33.7129 447.701 32.9746C447.385 32.2012 447.104 31.6211 446.857 31.2344C446.576 30.7773 446.33 30.4609 446.119 30.2852C445.873 30.2148 445.539 30.1445 445.117 30.0742C444.73 30.0391 444.238 30.0215 443.641 30.0215C443.078 30.0215 442.357 30.1094 441.479 30.2852C441.373 32.2188 441.355 33.7832 441.426 34.9785C441.531 36.1387 441.672 37.0352 441.848 37.668C442.023 38.4062 442.234 38.9336 442.48 39.25C442.797 39.5664 443.43 39.8301 444.379 40.041C445.328 40.2168 446.4 40.2871 447.596 40.252C448.826 40.1816 450.074 39.9707 451.34 39.6191C452.605 39.2676 453.73 38.6875 454.715 37.8789C455.453 37.2109 456.244 36.3672 457.088 35.3477C457.791 34.4688 458.564 33.3613 459.408 32.0254C460.287 30.6895 461.148 29.0723 461.992 27.1738C461.852 28.7559 461.746 30.0742 461.676 31.1289C461.641 32.1484 461.588 32.9746 461.518 33.6074C461.447 34.3457 461.395 34.9082 461.359 35.2949C461.359 35.7168 461.307 36.3145 461.201 37.0879C461.131 37.7559 461.008 38.6699 460.832 39.8301C460.691 40.9551 460.498 42.3965 460.252 44.1543C458.6 44.1895 457.035 44.2246 455.559 44.2598C454.082 44.2598 452.781 44.2773 451.656 44.3125C450.32 44.3477 449.09 44.3828 447.965 44.418C446.805 44.418 445.521 44.4707 444.115 44.5762C442.885 44.6465 441.426 44.752 439.738 44.8926C438.086 45.0332 436.258 45.2266 434.254 45.4727C434.43 43.082 434.553 40.832 434.623 38.7227C434.729 36.5781 434.799 34.6973 434.834 33.0801C434.869 31.1816 434.869 29.4238 434.834 27.8066C435.01 23.7637 434.939 20.4941 434.623 17.998C434.307 15.502 433.938 13.9023 433.516 13.1992C433.305 12.9531 433.006 12.6543 432.619 12.3027C432.303 12.0215 431.863 11.6875 431.301 11.3008C430.738 10.9141 430.035 10.4746 429.191 9.98242Z" fill="#527F72"/>
</g>
<defs>
<clipPath id="clip0_2085_53">
<rect width="490" height="60" fill="white"/>
</clipPath>
</defs>
</svg>
