<svg width="64" height="55" viewBox="0 0 64 55" fill="none" xmlns="http://www.w3.org/2000/svg">
<path d="M17.8704 36.7059L12.748 10.9307H60.4986V32.7524C60.4986 34.9363 58.7291 36.7059 56.5451 36.7059H17.8704Z" fill="#CCFFD9" stroke="#527F72" stroke-width="1.08475"/>
<path d="M56.5466 37.6974H17.0569L11.54 9.93945H61.4904V32.7535C61.4904 35.4797 59.2728 37.6974 56.5466 37.6974ZM18.6847 35.7147H56.5456C58.1793 35.7147 59.5077 34.3863 59.5077 32.7535V11.9222H13.957L18.6847 35.7147Z" fill="#527F72" stroke="#527F72" stroke-width="1.08475"/>
<path d="M24.8103 50.5854C27.5478 50.5854 29.7671 48.3662 29.7671 45.6286C29.7671 42.8911 27.5478 40.6719 24.8103 40.6719C22.0727 40.6719 19.8535 42.8911 19.8535 45.6286C19.8535 48.3662 22.0727 50.5854 24.8103 50.5854Z" fill="#59E63D" stroke="#527F72" stroke-width="1.08475"/>
<path d="M24.8095 51.5769C21.5291 51.5769 18.8613 48.9092 18.8613 45.6288C18.8613 42.3484 21.5291 39.6807 24.8095 39.6807C28.0898 39.6807 30.7576 42.3484 30.7576 45.6288C30.7576 48.9092 28.0898 51.5769 24.8095 51.5769ZM24.8095 41.6634C22.6225 41.6634 20.844 43.4419 20.844 45.6288C20.844 47.8157 22.6225 49.5942 24.8095 49.5942C26.9964 49.5942 28.7749 47.8157 28.7749 45.6288C28.7749 43.4419 26.9964 41.6634 24.8095 41.6634Z" fill="#527F72" stroke="#527F72" stroke-width="1.08475"/>
<path d="M47.6111 50.5854C50.3486 50.5854 52.5678 48.3662 52.5678 45.6286C52.5678 42.8911 50.3486 40.6719 47.6111 40.6719C44.8735 40.6719 42.6543 42.8911 42.6543 45.6286C42.6543 48.3662 44.8735 50.5854 47.6111 50.5854Z" fill="#59E63D" stroke="#527F72" stroke-width="1.08475"/>
<path d="M47.6102 51.5769C44.3298 51.5769 41.6621 48.9092 41.6621 45.6288C41.6621 42.3484 44.3298 39.6807 47.6102 39.6807C50.8906 39.6807 53.5584 42.3484 53.5584 45.6288C53.5584 48.9092 50.8906 51.5769 47.6102 51.5769ZM47.6102 41.6634C45.4233 41.6634 43.6448 43.4419 43.6448 45.6288C43.6448 47.8157 45.4233 49.5942 47.6102 49.5942C49.7972 49.5942 51.5757 47.8157 51.5757 45.6288C51.5757 43.4419 49.7972 41.6634 47.6102 41.6634Z" fill="#527F72" stroke="#527F72" stroke-width="1.08475"/>
<path d="M57.5248 45.6282H52.4679C51.9197 45.6282 51.4766 45.1851 51.4766 44.6369C51.4766 44.0886 51.9197 43.6455 52.4679 43.6455H57.5248C58.073 43.6455 58.5162 44.0886 58.5162 44.6369C58.5162 45.1851 58.073 45.6282 57.5248 45.6282Z" fill="#527F72" stroke="#527F72" stroke-width="1.08475"/>
<path d="M42.755 45.6282H29.6671C29.1189 45.6282 28.6758 45.1851 28.6758 44.6369C28.6758 44.0886 29.1189 43.6455 29.6671 43.6455H42.754C43.3022 43.6455 43.7454 44.0886 43.7454 44.6369C43.7454 45.1851 43.3022 45.6282 42.755 45.6282Z" fill="#527F72" stroke="#527F72" stroke-width="1.08475"/>
<path d="M12.7473 11.9229C12.2714 11.9229 11.8511 11.5789 11.7708 11.0941L11.0818 6.96611H8.94839C8.40017 6.96611 7.95703 6.52297 7.95703 5.97475C7.95703 5.42653 8.40017 4.9834 8.94839 4.9834H12.7631L13.7267 10.7689C13.8169 11.3092 13.4521 11.8198 12.9118 11.909C12.8553 11.9189 12.8018 11.9229 12.7473 11.9229Z" fill="#527F72" stroke="#527F72" stroke-width="1.08475"/>
<path d="M27.7959 16.8793H25.8132V14.8966C25.8132 14.3484 25.3701 13.9053 24.8219 13.9053C24.2736 13.9053 23.8305 14.3484 23.8305 14.8966V16.8793H21.8478C21.2996 16.8793 20.8564 17.3225 20.8564 17.8707C20.8564 18.4189 21.2996 18.862 21.8478 18.862H23.8305V20.8448C23.8305 21.393 24.2736 21.8361 24.8219 21.8361C25.3701 21.8361 25.8132 21.393 25.8132 20.8448V18.862H27.7959C28.3441 18.862 28.7873 18.4189 28.7873 17.8707C28.7873 17.3225 28.3432 16.8793 27.7959 16.8793Z" fill="#527F72" stroke="#527F72" stroke-width="1.08475"/>
<path d="M27.7959 28.7748H25.8132V26.7921C25.8132 26.2439 25.3701 25.8008 24.8219 25.8008C24.2736 25.8008 23.8305 26.2439 23.8305 26.7921V28.7748H21.8478C21.2996 28.7748 20.8564 29.218 20.8564 29.7662C20.8564 30.3144 21.2996 30.7576 21.8478 30.7576H23.8305V32.7403C23.8305 33.2885 24.2736 33.7316 24.8219 33.7316C25.3701 33.7316 25.8132 33.2885 25.8132 32.7403V30.7576H27.7959C28.3441 30.7576 28.7873 30.3144 28.7873 29.7662C28.7873 29.218 28.3432 28.7748 27.7959 28.7748Z" fill="#527F72" stroke="#527F72" stroke-width="1.08475"/>
<path d="M40.6836 16.8793H38.7009V14.8966C38.7009 14.3484 38.2578 13.9053 37.7096 13.9053C37.1613 13.9053 36.7182 14.3484 36.7182 14.8966V16.8793H34.7355C34.1873 16.8793 33.7441 17.3225 33.7441 17.8707C33.7441 18.4189 34.1873 18.862 34.7355 18.862H36.7182V20.8448C36.7182 21.393 37.1613 21.8361 37.7096 21.8361C38.2578 21.8361 38.7009 21.393 38.7009 20.8448V18.862H40.6836C41.2318 18.862 41.675 18.4189 41.675 17.8707C41.675 17.3225 41.2309 16.8793 40.6836 16.8793Z" fill="#527F72" stroke="#527F72" stroke-width="1.08475"/>
<path d="M40.6836 28.7748H38.7009V26.7921C38.7009 26.2439 38.2578 25.8008 37.7096 25.8008C37.1613 25.8008 36.7182 26.2439 36.7182 26.7921V28.7748H34.7355C34.1873 28.7748 33.7441 29.218 33.7441 29.7662C33.7441 30.3144 34.1873 30.7576 34.7355 30.7576H36.7182V32.7403C36.7182 33.2885 37.1613 33.7316 37.7096 33.7316C38.2578 33.7316 38.7009 33.2885 38.7009 32.7403V30.7576H40.6836C41.2318 30.7576 41.675 30.3144 41.675 29.7662C41.675 29.218 41.2309 28.7748 40.6836 28.7748Z" fill="#527F72" stroke="#527F72" stroke-width="1.08475"/>
<path d="M47.6222 18.862H49.6049V20.8448C49.6049 21.393 50.0481 21.8361 50.5963 21.8361C51.1445 21.8361 51.5876 21.393 51.5876 20.8448V18.862H53.5703C54.1186 18.862 54.5617 18.4189 54.5617 17.8707C54.5617 17.3225 54.1186 16.8793 53.5703 16.8793H51.5876V14.8966C51.5876 14.3484 51.1445 13.9053 50.5963 13.9053C50.0481 13.9053 49.6049 14.3484 49.6049 14.8966V16.8793H47.6222C47.074 16.8793 46.6309 17.3225 46.6309 17.8707C46.6309 18.4189 47.074 18.862 47.6222 18.862Z" fill="#527F72" stroke="#527F72" stroke-width="1.08475"/>
<path d="M53.5703 28.7748H51.5876V26.7921C51.5876 26.2439 51.1445 25.8008 50.5963 25.8008C50.0481 25.8008 49.6049 26.2439 49.6049 26.7921V28.7748H47.6222C47.074 28.7748 46.6309 29.218 46.6309 29.7662C46.6309 30.3144 47.074 30.7576 47.6222 30.7576H49.6049V32.7403C49.6049 33.2885 50.0481 33.7316 50.5963 33.7316C51.1445 33.7316 51.5876 33.2885 51.5876 32.7403V30.7576H53.5703C54.1186 30.7576 54.5617 30.3144 54.5617 29.7662C54.5617 29.218 54.1176 28.7748 53.5703 28.7748Z" fill="#527F72" stroke="#527F72" stroke-width="1.08475"/>
<path d="M19.9537 45.6284H16.8795C15.4857 45.6284 14.1454 45.0306 13.2046 43.9907C12.2658 42.9527 11.8078 41.5589 11.9476 40.166C12.2004 37.6698 14.4487 35.7148 17.0659 35.7148C17.6141 35.7148 18.0573 36.158 18.0573 36.7062C18.0573 37.2544 17.6141 37.6976 17.0659 37.6976C15.453 37.6976 14.071 38.8693 13.9204 40.3643C13.8341 41.2119 14.1028 42.0278 14.6748 42.6603C15.2418 43.2868 16.0448 43.6457 16.8795 43.6457H19.9537C20.502 43.6457 20.9451 44.0888 20.9451 44.637C20.9451 45.1853 20.501 45.6284 19.9537 45.6284Z" fill="#527F72" stroke="#527F72" stroke-width="1.08475"/>
<path d="M5.97363 3.54199C7.31647 3.54199 8.40504 4.63085 8.40527 5.97363C8.40527 7.31662 7.31662 8.40527 5.97363 8.40527C4.63085 8.40504 3.54199 7.31647 3.54199 5.97363C3.54223 4.63099 4.63099 3.54223 5.97363 3.54199Z" fill="#59E63D" stroke="#527F72" stroke-width="1.08475"/>
</svg>
